<svg xmlns="http://www.w3.org/2000/svg" viewBox="0 0 31 28"><path fill="#fff" d="M30.401 7.272h-1.537l.297-1.544C29.24 5.333 28.97 5 28.576 5c-.393 0-.794.333-.864.728l-.297 1.544h-1.537c-.393 0-.794.333-.864.728-.079.395.192.728.585.728h1.537l-.297 1.544c-.079.395.192.728.585.728.393 0 .794-.333.864-.728l.297-1.544h1.537c.393 0 .794-.333.864-.728.079-.395-.192-.728-.585-.728zM17.628 27.933l7.08-1.762S21.658 5.54 21.64 5.398a.272.272 0 0 0-.246-.228c-.101-.009-2.095-.04-2.095-.04s-1.214-1.18-1.671-1.628v24.43zm-.771-24.666-.837.26a5.874 5.874 0 0 0-.4-.987C15.025 1.407 14.156.807 13.106.805h-.004c-.073 0-.146.007-.219.014a3.255 3.255 0 0 0-.094-.11C12.332.219 11.746-.02 11.043 0 9.687.04 8.336 1.02 7.241 2.762c-.77 1.225-1.357 2.765-1.523 3.957l-2.67.828c-.787.248-.812.272-.914 1.014C2.057 9.122 0 25.046 0 25.046L17.064 28V3.232a.996.996 0 0 0-.207.035zm-3.94 1.221-2.878.892c.278-1.066.806-2.127 1.454-2.823.24-.26.577-.548.977-.713.375.784.456 1.894.447 2.644zM11.069.905c.319-.007.587.063.816.214a3.9 3.9 0 0 0-1.053.821c-.862.925-1.522 2.362-1.785 3.747l-2.364.733C7.15 4.239 8.976.966 11.069.905zM8.431 13.33c.091 1.454 3.91 1.77 4.125 5.175.168 2.679-1.42 4.51-3.707 4.655-2.745.174-4.257-1.448-4.257-1.448l.582-2.479s1.521 1.15 2.74 1.073c.795-.05 1.079-.699 1.05-1.157-.12-1.896-3.23-1.784-3.426-4.899-.165-2.621 1.554-5.278 5.349-5.517 1.461-.093 2.21.281 2.21.281l-.867 3.25s-.968-.441-2.115-.369c-1.684.107-1.701 1.17-1.684 1.435zm5.388-9.122c-.01-.687-.092-1.644-.412-2.47 1.03.195 1.536 1.36 1.75 2.056l-1.338.414z"/></svg>